<svg xmlns="http://www.w3.org/2000/svg" viewBox="0 0 64 64" role="img" aria-label="Soplo">
  <defs>
    <linearGradient id="v" x1="18%" y1="4%" x2="76%" y2="98%">
      <stop offset="0%" stop-color="#ffffff"/>
      <stop offset="30%" stop-color="#bfe4fb"/>
      <stop offset="70%" stop-color="#5fa8d8"/>
      <stop offset="100%" stop-color="#2a5ba8"/>
    </linearGradient>
    <linearGradient id="brillo" x1="0%" y1="0%" x2="100%" y2="100%">
      <stop offset="0%" stop-color="#ffffff" stop-opacity=".85"/>
      <stop offset="100%" stop-color="#ffffff" stop-opacity="0"/>
    </linearGradient>
  </defs>

  <rect width="64" height="64" rx="12" fill="#faf8f6"/>

  <!-- corazon de vidrio -->
  <path fill="url(#v)"
    d="M32 54.5
       C32 54.5 7.5 39.5 7.5 24.5
       C7.5 16.4 13.7 10.5 21.2 10.5
       C26.1 10.5 30 13.1 32 17
       C34 13.1 37.9 10.5 42.8 10.5
       C50.3 10.5 56.5 16.4 56.5 24.5
       C56.5 39.5 32 54.5 32 54.5 Z"/>

  <!-- reflejo, para que se lea como vidrio -->
  <path fill="url(#brillo)"
    d="M20.8 15.5
       C16.2 15.5 12.6 19 12.6 23.9
       C12.6 28.4 14.6 32.6 17.4 36.3
       C15.6 31.8 15.2 27.6 16.3 23.8
       C17.3 20.3 19.6 17.6 23 16.3
       C22.3 15.8 21.6 15.5 20.8 15.5 Z"/>
</svg>
